<?xml version="1.0" encoding="UTF-8" standalone="no"?>
<!DOCTYPE svg PUBLIC "-//W3C//DTD SVG 20010904//EN" "http://www.w3.org/TR/2001/REC-SVG-20010904/DTD/svg10.dtd">
<svg version="1.0" xmlns="http://www.w3.org/2000/svg" width="700.000000pt" height="700.000000pt" viewBox="0 0 700.000000 700.000000" preserveAspectRatio="xMidYMid meet">
<metadata>
Created by potrace 1.11, written by Peter Selinger 2001-2013
</metadata>
<g transform="translate(0.000000,700.000000) scale(0.100000,-0.100000)" fill="#000000" stroke="none">
<path d="M3937 5964 c-1 -1 -40 -4 -87 -8 -283 -22 -558 -100 -835 -236 -250 -123 -449 -264 -638 -452 -49 -49 -93 -88 -99 -88 -5 0 -28 15 -51 33 -22 17 -51 39 -63 47 -26 18 -417 313 -424 320 -21 22 -160 119 -180 125 -40 13 -89 7 -125 -15 -42 -26 -57 -74 -41 -135 2 -11 14 -65 26 -120 12 -55 23 -107 25 -115 2 -8 17 -80 35 -160 34 -159 64 -294 85 -381 12 -53 11 -66 -16 -190 -16 -74 -31 -143 -33 -154 -2 -11 -7 -31 -10 -45 -15 -67 -58 -268 -62 -289 -3 -12 -11 -51 -19 -85 -24 -106 -27 -120 -32 -157 -13 -98 91 -175 176 -130 19 10 181 127 292 211 26 19 58 43 70 52 13 9 78 56 144 105 66 49 140 103 164 120 l43 32 83 -83 c76 -76 217 -199 275 -239 165 -114 253 -167 370 -223 41 -20 83 -40 92 -45 105 -55 422 -148 593 -174 17 -3 57 -9 90 -14 63 -10 345 -7 405 4 121 21 156 29 255 57 239 66 455 167 686 321 300 200 616 524 717 734 56 120 50 170 -43 318 -146 231 -397 476 -695 674 -294 195 -575 309 -905 366 -67 11 -260 25 -268 19z m772 -1015 c95 -31 163 -129 163 -233 0 -190 -198 -309 -363 -219 -122 66 -165 204 -103 330 31 65 85 109 155 127 58 15 91 13 148 -5z"/>
<path d="M2870 3269 c-199 -23 -374 -76 -575 -175 -150 -73 -160 -79 -279 -158 -403 -268 -790 -735 -768 -926 8 -71 66 -180 169 -319 222 -298 531 -555 868 -721 189 -93 304 -130 540 -175 17 -3 84 -8 150 -10 141 -4 268 12 465 61 388 96 783 335 1060 641 41 46 78 82 82 81 4 -2 111 -88 239 -193 374 -306 411 -335 436 -342 42 -10 100 14 126 53 29 41 28 55 -7 234 -34 176 -30 156 -60 305 -15 72 -29 144 -32 160 -3 17 -15 77 -27 135 -20 93 -21 112 -10 165 7 33 15 78 18 99 3 21 8 42 10 46 2 4 7 22 10 41 3 19 17 88 30 154 14 66 27 129 29 140 57 282 67 341 62 370 -12 62 -97 109 -156 87 -14 -5 -56 -36 -95 -67 -38 -32 -90 -74 -114 -94 -25 -20 -72 -59 -105 -86 -34 -28 -97 -79 -141 -115 -44 -35 -82 -67 -85 -70 -3 -3 -30 -26 -62 -52 -54 -46 -78 -58 -78 -40 0 16 -224 239 -306 304 -147 118 -228 169 -419 263 -183 91 -430 170 -594 190 -30 4 -63 9 -75 12 -37 8 -239 10 -306 2z m-98 -586 c18 -16 42 -39 53 -52 47 -58 58 -44 -240 -338 -310 -307 -318 -313 -345 -306 -28 7 -110 99 -110 122 0 24 571 601 594 601 8 0 29 -12 48 -27z m754 -125 c52 -48 66 -75 52 -101 -5 -9 -230 -238 -500 -507 -366 -365 -497 -490 -514 -490 -34 0 -124 93 -124 128 0 7 224 238 498 513 367 368 503 499 520 499 12 0 43 -19 68 -42z m322 -532 c38 -40 50 -60 47 -76 -6 -30 -566 -589 -595 -595 -31 -6 -130 88 -130 123 0 38 565 602 602 602 17 0 40 -16 76 -54z"/>
</g>
</svg>